<mxfile host="app.diagrams.net" modified="2020-11-05T09:27:02.416Z" agent="5.0 (Windows NT 10.0; Win64; x64) AppleWebKit/537.36 (KHTML, like Gecko) Chrome/86.0.4240.183 Safari/537.36" etag="Jda-9_W7neyjYUDK2CNJ" version="13.9.1" type="github">
  <diagram id="u0rU5J1bADTjxajE3t6j" name="Page-1">
    <mxGraphModel dx="1185" dy="640" grid="1" gridSize="10" guides="1" tooltips="1" connect="1" arrows="1" fold="1" page="1" pageScale="1" pageWidth="827" pageHeight="1169" math="0" shadow="0">
      <root>
        <mxCell id="0" />
        <mxCell id="1" parent="0" />
        <mxCell id="oVFu0z2K6xMMtM1_5Rjc-14" style="edgeStyle=orthogonalEdgeStyle;rounded=0;orthogonalLoop=1;jettySize=auto;html=1;exitX=0.5;exitY=1;exitDx=0;exitDy=0;entryX=0.5;entryY=0;entryDx=0;entryDy=0;endArrow=none;endFill=0;" edge="1" parent="1" source="oVFu0z2K6xMMtM1_5Rjc-1" target="oVFu0z2K6xMMtM1_5Rjc-13">
          <mxGeometry relative="1" as="geometry" />
        </mxCell>
        <mxCell id="oVFu0z2K6xMMtM1_5Rjc-1" value="AEROPUERTO" style="whiteSpace=wrap;html=1;align=center;fillColor=#dae8fc;strokeColor=#6c8ebf;" vertex="1" parent="1">
          <mxGeometry x="270" y="300" width="100" height="40" as="geometry" />
        </mxCell>
        <mxCell id="oVFu0z2K6xMMtM1_5Rjc-10" style="edgeStyle=orthogonalEdgeStyle;rounded=0;orthogonalLoop=1;jettySize=auto;html=1;exitX=0;exitY=0.5;exitDx=0;exitDy=0;" edge="1" parent="1" source="oVFu0z2K6xMMtM1_5Rjc-2" target="oVFu0z2K6xMMtM1_5Rjc-1">
          <mxGeometry relative="1" as="geometry" />
        </mxCell>
        <mxCell id="oVFu0z2K6xMMtM1_5Rjc-11" style="edgeStyle=orthogonalEdgeStyle;rounded=0;orthogonalLoop=1;jettySize=auto;html=1;exitX=1;exitY=0.5;exitDx=0;exitDy=0;" edge="1" parent="1" source="oVFu0z2K6xMMtM1_5Rjc-2" target="oVFu0z2K6xMMtM1_5Rjc-6">
          <mxGeometry relative="1" as="geometry" />
        </mxCell>
        <mxCell id="oVFu0z2K6xMMtM1_5Rjc-2" value="TIENE" style="shape=rhombus;perimeter=rhombusPerimeter;whiteSpace=wrap;html=1;align=center;fillColor=#d5e8d4;strokeColor=#82b366;" vertex="1" parent="1">
          <mxGeometry x="430" y="290" width="120" height="60" as="geometry" />
        </mxCell>
        <mxCell id="oVFu0z2K6xMMtM1_5Rjc-3" value="CÓDIGO" style="ellipse;whiteSpace=wrap;html=1;align=center;fillColor=#ffe6cc;strokeColor=#d79b00;fontStyle=4" vertex="1" parent="1">
          <mxGeometry x="265" y="250" width="110" height="40" as="geometry" />
        </mxCell>
        <mxCell id="oVFu0z2K6xMMtM1_5Rjc-4" value="N:1" style="text;html=1;strokeColor=none;fillColor=none;align=center;verticalAlign=middle;whiteSpace=wrap;rounded=0;" vertex="1" parent="1">
          <mxGeometry x="470" y="270" width="40" height="20" as="geometry" />
        </mxCell>
        <mxCell id="oVFu0z2K6xMMtM1_5Rjc-5" value="{1,N}" style="text;html=1;strokeColor=none;fillColor=none;align=center;verticalAlign=middle;whiteSpace=wrap;rounded=0;" vertex="1" parent="1">
          <mxGeometry x="370" y="300" width="40" height="20" as="geometry" />
        </mxCell>
        <mxCell id="oVFu0z2K6xMMtM1_5Rjc-6" value="PROGRAMA DE VUELO" style="whiteSpace=wrap;html=1;align=center;fillColor=#dae8fc;strokeColor=#6c8ebf;" vertex="1" parent="1">
          <mxGeometry x="600" y="300" width="100" height="40" as="geometry" />
        </mxCell>
        <mxCell id="oVFu0z2K6xMMtM1_5Rjc-7" value="AEROPUERTO ATERRIZAJE" style="whiteSpace=wrap;html=1;align=center;fillColor=#dae8fc;strokeColor=#6c8ebf;" vertex="1" parent="1">
          <mxGeometry x="165" y="400" width="100" height="40" as="geometry" />
        </mxCell>
        <mxCell id="oVFu0z2K6xMMtM1_5Rjc-8" value="AEROPUERTO ESCALAS" style="whiteSpace=wrap;html=1;align=center;fillColor=#dae8fc;strokeColor=#6c8ebf;" vertex="1" parent="1">
          <mxGeometry x="370" y="400" width="100" height="40" as="geometry" />
        </mxCell>
        <mxCell id="oVFu0z2K6xMMtM1_5Rjc-9" value="{1,1}" style="text;html=1;strokeColor=none;fillColor=none;align=center;verticalAlign=middle;whiteSpace=wrap;rounded=0;" vertex="1" parent="1">
          <mxGeometry x="560" y="300" width="40" height="20" as="geometry" />
        </mxCell>
        <mxCell id="oVFu0z2K6xMMtM1_5Rjc-12" value="" style="triangle;whiteSpace=wrap;html=1;rotation=90;" vertex="1" parent="1">
          <mxGeometry x="302.5" y="350" width="35" height="70" as="geometry" />
        </mxCell>
        <mxCell id="oVFu0z2K6xMMtM1_5Rjc-15" style="edgeStyle=orthogonalEdgeStyle;rounded=0;orthogonalLoop=1;jettySize=auto;html=1;exitX=0.5;exitY=1;exitDx=0;exitDy=0;entryX=0;entryY=0.5;entryDx=0;entryDy=0;endArrow=none;endFill=0;" edge="1" parent="1" source="oVFu0z2K6xMMtM1_5Rjc-13" target="oVFu0z2K6xMMtM1_5Rjc-12">
          <mxGeometry relative="1" as="geometry" />
        </mxCell>
        <mxCell id="oVFu0z2K6xMMtM1_5Rjc-13" value="" style="ellipse;whiteSpace=wrap;html=1;aspect=fixed;" vertex="1" parent="1">
          <mxGeometry x="315" y="350" width="10" height="10" as="geometry" />
        </mxCell>
        <mxCell id="oVFu0z2K6xMMtM1_5Rjc-16" value="VUELO" style="whiteSpace=wrap;html=1;align=center;fillColor=#dae8fc;strokeColor=#6c8ebf;" vertex="1" parent="1">
          <mxGeometry x="600" y="400" width="100" height="40" as="geometry" />
        </mxCell>
        <mxCell id="oVFu0z2K6xMMtM1_5Rjc-17" value="AVIÓN" style="whiteSpace=wrap;html=1;align=center;fillColor=#dae8fc;strokeColor=#6c8ebf;" vertex="1" parent="1">
          <mxGeometry x="600" y="560" width="100" height="40" as="geometry" />
        </mxCell>
        <mxCell id="oVFu0z2K6xMMtM1_5Rjc-18" value="CÓDIGO" style="ellipse;whiteSpace=wrap;html=1;align=center;fillColor=#ffe6cc;strokeColor=#d79b00;fontStyle=4" vertex="1" parent="1">
          <mxGeometry x="595" y="620" width="110" height="40" as="geometry" />
        </mxCell>
        <mxCell id="oVFu0z2K6xMMtM1_5Rjc-19" value="Nº_VUELO" style="ellipse;whiteSpace=wrap;html=1;align=center;fillColor=#ffe6cc;strokeColor=#d79b00;fontStyle=4" vertex="1" parent="1">
          <mxGeometry x="595" y="240" width="110" height="40" as="geometry" />
        </mxCell>
      </root>
    </mxGraphModel>
  </diagram>
</mxfile>
